<?xml version="1.0" encoding="utf-8" standalone="no"?>
<!DOCTYPE svg PUBLIC "-//W3C//DTD SVG 1.1//EN"
  "http://www.w3.org/Graphics/SVG/1.1/DTD/svg11.dtd">
<svg xmlns:xlink="http://www.w3.org/1999/xlink" width="302.4pt" height="144pt" viewBox="0 0 302.4 144" xmlns="http://www.w3.org/2000/svg" version="1.1">
 <metadata>
  <rdf:RDF xmlns:dc="http://purl.org/dc/elements/1.1/" xmlns:cc="http://creativecommons.org/ns#" xmlns:rdf="http://www.w3.org/1999/02/22-rdf-syntax-ns#">
   <cc:Work>
    <dc:type rdf:resource="http://purl.org/dc/dcmitype/StillImage"/>
    <dc:date>2026-02-24T19:35:58.490457</dc:date>
    <dc:format>image/svg+xml</dc:format>
    <dc:creator>
     <cc:Agent>
      <dc:title>Matplotlib v3.10.6, https://matplotlib.org/</dc:title>
     </cc:Agent>
    </dc:creator>
   </cc:Work>
  </rdf:RDF>
 </metadata>
 <defs>
  <style type="text/css">*{stroke-linejoin: round; stroke-linecap: butt}</style>
 </defs>
 <g id="figure_1">
  <g id="patch_1">
   <path d="M 0 144 
L 302.4 144 
L 302.4 0 
L 0 0 
z
" style="fill: #ffffff"/>
  </g>
  <g id="axes_1">
   <g id="patch_2">
    <path d="M 39.40024 111.815385 
L 146.25296 111.815385 
L 146.25296 3.00024 
L 39.40024 3.00024 
z
" style="fill: #ffffff"/>
   </g>
   <g id="FillBetweenPolyCollection_1">
    <defs>
     <path id="m82ef0feb41" d="M 44.257182 -103.78498 
L 44.257182 -77.234085 
L 92.8266 -99.323559 
L 141.396018 -116.298722 
L 141.396018 -126.418531 
L 141.396018 -126.418531 
L 92.8266 -107.811141 
L 44.257182 -103.78498 
z
"/>
    </defs>
    <g clip-path="url(#p846e1bdace)">
     <use xlink:href="#m82ef0feb41" x="0" y="144" style="fill: #7bc8a4; fill-opacity: 0.2"/>
    </g>
   </g>
   <g id="FillBetweenPolyCollection_2">
    <defs>
     <path id="m19a1c2c900" d="M 44.257182 -115.863462 
L 44.257182 -95.623845 
L 92.8266 -88.659675 
L 141.396018 -96.276735 
L 141.396018 -119.563176 
L 141.396018 -119.563176 
L 92.8266 -114.99294 
L 44.257182 -115.863462 
z
"/>
    </defs>
    <g clip-path="url(#p846e1bdace)">
     <use xlink:href="#m19a1c2c900" x="0" y="144" style="fill: #2e4057; fill-opacity: 0.2"/>
    </g>
   </g>
   <g id="matplotlib.axis_1">
    <g id="xtick_1">
     <g id="line2d_1">
      <defs>
       <path id="m3716483c67" d="M 0 0 
L 0 3.5 
" style="stroke: #000000; stroke-width: 0.8"/>
      </defs>
      <g>
       <use xlink:href="#m3716483c67" x="44.257182" y="111.815385" style="stroke: #000000; stroke-width: 0.8"/>
      </g>
     </g>
     <g id="text_1">
      <!-- 0.02 -->
      <g transform="translate(35.507182 125.759135) scale(0.1 -0.1)">
       <defs>
        <path id="TimesNewRomanPSMT-30" d="M 231 2094 
Q 231 2819 450 3342 
Q 669 3866 1031 4122 
Q 1313 4325 1613 4325 
Q 2100 4325 2488 3828 
Q 2972 3213 2972 2159 
Q 2972 1422 2759 906 
Q 2547 391 2217 158 
Q 1888 -75 1581 -75 
Q 975 -75 572 641 
Q 231 1244 231 2094 
z
M 844 2016 
Q 844 1141 1059 588 
Q 1238 122 1591 122 
Q 1759 122 1940 273 
Q 2122 425 2216 781 
Q 2359 1319 2359 2297 
Q 2359 3022 2209 3506 
Q 2097 3866 1919 4016 
Q 1791 4119 1609 4119 
Q 1397 4119 1231 3928 
Q 1006 3669 925 3112 
Q 844 2556 844 2016 
z
" transform="scale(0.015625)"/>
        <path id="TimesNewRomanPSMT-2e" d="M 800 606 
Q 947 606 1047 504 
Q 1147 403 1147 259 
Q 1147 116 1045 14 
Q 944 -88 800 -88 
Q 656 -88 554 14 
Q 453 116 453 259 
Q 453 406 554 506 
Q 656 606 800 606 
z
" transform="scale(0.015625)"/>
        <path id="TimesNewRomanPSMT-32" d="M 2934 816 
L 2638 0 
L 138 0 
L 138 116 
Q 1241 1122 1691 1759 
Q 2141 2397 2141 2925 
Q 2141 3328 1894 3587 
Q 1647 3847 1303 3847 
Q 991 3847 742 3664 
Q 494 3481 375 3128 
L 259 3128 
Q 338 3706 661 4015 
Q 984 4325 1469 4325 
Q 1984 4325 2329 3994 
Q 2675 3663 2675 3213 
Q 2675 2891 2525 2569 
Q 2294 2063 1775 1497 
Q 997 647 803 472 
L 1909 472 
Q 2247 472 2383 497 
Q 2519 522 2628 598 
Q 2738 675 2819 816 
L 2934 816 
z
" transform="scale(0.015625)"/>
       </defs>
       <use xlink:href="#TimesNewRomanPSMT-30"/>
       <use xlink:href="#TimesNewRomanPSMT-2e" transform="translate(50 0)"/>
       <use xlink:href="#TimesNewRomanPSMT-30" transform="translate(75 0)"/>
       <use xlink:href="#TimesNewRomanPSMT-32" transform="translate(125 0)"/>
      </g>
     </g>
    </g>
    <g id="xtick_2">
     <g id="line2d_2">
      <g>
       <use xlink:href="#m3716483c67" x="92.8266" y="111.815385" style="stroke: #000000; stroke-width: 0.8"/>
      </g>
     </g>
     <g id="text_2">
      <!-- 0.03 -->
      <g transform="translate(84.0766 125.759135) scale(0.1 -0.1)">
       <defs>
        <path id="TimesNewRomanPSMT-33" d="M 325 3431 
Q 506 3859 782 4092 
Q 1059 4325 1472 4325 
Q 1981 4325 2253 3994 
Q 2459 3747 2459 3466 
Q 2459 3003 1878 2509 
Q 2269 2356 2469 2072 
Q 2669 1788 2669 1403 
Q 2669 853 2319 450 
Q 1863 -75 997 -75 
Q 569 -75 414 31 
Q 259 138 259 259 
Q 259 350 332 419 
Q 406 488 509 488 
Q 588 488 669 463 
Q 722 447 909 348 
Q 1097 250 1169 231 
Q 1284 197 1416 197 
Q 1734 197 1970 444 
Q 2206 691 2206 1028 
Q 2206 1275 2097 1509 
Q 2016 1684 1919 1775 
Q 1784 1900 1550 2001 
Q 1316 2103 1072 2103 
L 972 2103 
L 972 2197 
Q 1219 2228 1467 2375 
Q 1716 2522 1828 2728 
Q 1941 2934 1941 3181 
Q 1941 3503 1739 3701 
Q 1538 3900 1238 3900 
Q 753 3900 428 3381 
L 325 3431 
z
" transform="scale(0.015625)"/>
       </defs>
       <use xlink:href="#TimesNewRomanPSMT-30"/>
       <use xlink:href="#TimesNewRomanPSMT-2e" transform="translate(50 0)"/>
       <use xlink:href="#TimesNewRomanPSMT-30" transform="translate(75 0)"/>
       <use xlink:href="#TimesNewRomanPSMT-33" transform="translate(125 0)"/>
      </g>
     </g>
    </g>
    <g id="xtick_3">
     <g id="line2d_3">
      <g>
       <use xlink:href="#m3716483c67" x="141.396018" y="111.815385" style="stroke: #000000; stroke-width: 0.8"/>
      </g>
     </g>
     <g id="text_3">
      <!-- 0.04 -->
      <g transform="translate(132.646018 125.759135) scale(0.1 -0.1)">
       <defs>
        <path id="TimesNewRomanPSMT-34" d="M 2978 1563 
L 2978 1119 
L 2409 1119 
L 2409 0 
L 1894 0 
L 1894 1119 
L 100 1119 
L 100 1519 
L 2066 4325 
L 2409 4325 
L 2409 1563 
L 2978 1563 
z
M 1894 1563 
L 1894 3666 
L 406 1563 
L 1894 1563 
z
" transform="scale(0.015625)"/>
       </defs>
       <use xlink:href="#TimesNewRomanPSMT-30"/>
       <use xlink:href="#TimesNewRomanPSMT-2e" transform="translate(50 0)"/>
       <use xlink:href="#TimesNewRomanPSMT-30" transform="translate(75 0)"/>
       <use xlink:href="#TimesNewRomanPSMT-34" transform="translate(125 0)"/>
      </g>
     </g>
    </g>
    <g id="text_4">
     <!-- Shear Velocity (m/s) -->
     <g transform="translate(51.814881 138.841948) scale(0.1 -0.1)">
      <defs>
       <path id="TimesNewRomanPSMT-53" d="M 2934 4334 
L 2934 2869 
L 2819 2869 
Q 2763 3291 2617 3541 
Q 2472 3791 2203 3937 
Q 1934 4084 1647 4084 
Q 1322 4084 1109 3886 
Q 897 3688 897 3434 
Q 897 3241 1031 3081 
Q 1225 2847 1953 2456 
Q 2547 2138 2764 1967 
Q 2981 1797 3098 1565 
Q 3216 1334 3216 1081 
Q 3216 600 2842 251 
Q 2469 -97 1881 -97 
Q 1697 -97 1534 -69 
Q 1438 -53 1133 45 
Q 828 144 747 144 
Q 669 144 623 97 
Q 578 50 556 -97 
L 441 -97 
L 441 1356 
L 556 1356 
Q 638 900 775 673 
Q 913 447 1195 297 
Q 1478 147 1816 147 
Q 2206 147 2432 353 
Q 2659 559 2659 841 
Q 2659 997 2573 1156 
Q 2488 1316 2306 1453 
Q 2184 1547 1640 1851 
Q 1097 2156 867 2337 
Q 638 2519 519 2737 
Q 400 2956 400 3219 
Q 400 3675 750 4004 
Q 1100 4334 1641 4334 
Q 1978 4334 2356 4169 
Q 2531 4091 2603 4091 
Q 2684 4091 2736 4139 
Q 2788 4188 2819 4334 
L 2934 4334 
z
" transform="scale(0.015625)"/>
       <path id="TimesNewRomanPSMT-68" d="M 1041 4444 
L 1041 2350 
Q 1388 2731 1591 2839 
Q 1794 2947 1997 2947 
Q 2241 2947 2416 2812 
Q 2591 2678 2675 2391 
Q 2734 2191 2734 1659 
L 2734 647 
Q 2734 375 2778 275 
Q 2809 200 2884 156 
Q 2959 113 3159 113 
L 3159 0 
L 1753 0 
L 1753 113 
L 1819 113 
Q 2019 113 2097 173 
Q 2175 234 2206 353 
Q 2216 403 2216 647 
L 2216 1659 
Q 2216 2128 2167 2275 
Q 2119 2422 2012 2495 
Q 1906 2569 1756 2569 
Q 1603 2569 1437 2487 
Q 1272 2406 1041 2159 
L 1041 647 
Q 1041 353 1073 281 
Q 1106 209 1195 161 
Q 1284 113 1503 113 
L 1503 0 
L 84 0 
L 84 113 
Q 275 113 384 172 
Q 447 203 484 290 
Q 522 378 522 647 
L 522 3238 
Q 522 3728 498 3840 
Q 475 3953 426 3993 
Q 378 4034 297 4034 
Q 231 4034 84 3984 
L 41 4094 
L 897 4444 
L 1041 4444 
z
" transform="scale(0.015625)"/>
       <path id="TimesNewRomanPSMT-65" d="M 681 1784 
Q 678 1147 991 784 
Q 1303 422 1725 422 
Q 2006 422 2214 576 
Q 2422 731 2563 1106 
L 2659 1044 
Q 2594 616 2278 264 
Q 1963 -88 1488 -88 
Q 972 -88 605 314 
Q 238 716 238 1394 
Q 238 2128 614 2539 
Q 991 2950 1559 2950 
Q 2041 2950 2350 2633 
Q 2659 2316 2659 1784 
L 681 1784 
z
M 681 1966 
L 2006 1966 
Q 1991 2241 1941 2353 
Q 1863 2528 1708 2628 
Q 1553 2728 1384 2728 
Q 1125 2728 920 2526 
Q 716 2325 681 1966 
z
" transform="scale(0.015625)"/>
       <path id="TimesNewRomanPSMT-61" d="M 1822 413 
Q 1381 72 1269 19 
Q 1100 -59 909 -59 
Q 613 -59 420 144 
Q 228 347 228 678 
Q 228 888 322 1041 
Q 450 1253 767 1440 
Q 1084 1628 1822 1897 
L 1822 2009 
Q 1822 2438 1686 2597 
Q 1550 2756 1291 2756 
Q 1094 2756 978 2650 
Q 859 2544 859 2406 
L 866 2225 
Q 866 2081 792 2003 
Q 719 1925 600 1925 
Q 484 1925 411 2006 
Q 338 2088 338 2228 
Q 338 2497 613 2722 
Q 888 2947 1384 2947 
Q 1766 2947 2009 2819 
Q 2194 2722 2281 2516 
Q 2338 2381 2338 1966 
L 2338 994 
Q 2338 584 2353 492 
Q 2369 400 2405 369 
Q 2441 338 2488 338 
Q 2538 338 2575 359 
Q 2641 400 2828 588 
L 2828 413 
Q 2478 -56 2159 -56 
Q 2006 -56 1915 50 
Q 1825 156 1822 413 
z
M 1822 616 
L 1822 1706 
Q 1350 1519 1213 1441 
Q 966 1303 859 1153 
Q 753 1003 753 825 
Q 753 600 887 451 
Q 1022 303 1197 303 
Q 1434 303 1822 616 
z
" transform="scale(0.015625)"/>
       <path id="TimesNewRomanPSMT-72" d="M 1038 2947 
L 1038 2303 
Q 1397 2947 1775 2947 
Q 1947 2947 2059 2842 
Q 2172 2738 2172 2600 
Q 2172 2478 2090 2393 
Q 2009 2309 1897 2309 
Q 1788 2309 1652 2417 
Q 1516 2525 1450 2525 
Q 1394 2525 1328 2463 
Q 1188 2334 1038 2041 
L 1038 669 
Q 1038 431 1097 309 
Q 1138 225 1241 169 
Q 1344 113 1538 113 
L 1538 0 
L 72 0 
L 72 113 
Q 291 113 397 181 
Q 475 231 506 341 
Q 522 394 522 644 
L 522 1753 
Q 522 2253 501 2348 
Q 481 2444 426 2487 
Q 372 2531 291 2531 
Q 194 2531 72 2484 
L 41 2597 
L 906 2947 
L 1038 2947 
z
" transform="scale(0.015625)"/>
       <path id="TimesNewRomanPSMT-20" transform="scale(0.015625)"/>
       <path id="TimesNewRomanPSMT-56" d="M 4544 4238 
L 4544 4122 
Q 4319 4081 4203 3978 
Q 4038 3825 3909 3509 
L 2431 -97 
L 2316 -97 
L 728 3556 
Q 606 3838 556 3900 
Q 478 3997 364 4051 
Q 250 4106 56 4122 
L 56 4238 
L 1788 4238 
L 1788 4122 
Q 1494 4094 1406 4022 
Q 1319 3950 1319 3838 
Q 1319 3681 1463 3350 
L 2541 866 
L 3541 3319 
Q 3688 3681 3688 3822 
Q 3688 3913 3597 3995 
Q 3506 4078 3291 4113 
Q 3275 4116 3238 4122 
L 3238 4238 
L 4544 4238 
z
" transform="scale(0.015625)"/>
       <path id="TimesNewRomanPSMT-6c" d="M 1184 4444 
L 1184 647 
Q 1184 378 1223 290 
Q 1263 203 1344 158 
Q 1425 113 1647 113 
L 1647 0 
L 244 0 
L 244 113 
Q 441 113 512 153 
Q 584 194 625 287 
Q 666 381 666 647 
L 666 3247 
Q 666 3731 644 3842 
Q 622 3953 573 3993 
Q 525 4034 450 4034 
Q 369 4034 244 3984 
L 191 4094 
L 1044 4444 
L 1184 4444 
z
" transform="scale(0.015625)"/>
       <path id="TimesNewRomanPSMT-6f" d="M 1600 2947 
Q 2250 2947 2644 2453 
Q 2978 2031 2978 1484 
Q 2978 1100 2793 706 
Q 2609 313 2286 112 
Q 1963 -88 1566 -88 
Q 919 -88 538 428 
Q 216 863 216 1403 
Q 216 1797 411 2186 
Q 606 2575 925 2761 
Q 1244 2947 1600 2947 
z
M 1503 2744 
Q 1338 2744 1170 2645 
Q 1003 2547 900 2300 
Q 797 2053 797 1666 
Q 797 1041 1045 587 
Q 1294 134 1700 134 
Q 2003 134 2200 384 
Q 2397 634 2397 1244 
Q 2397 2006 2069 2444 
Q 1847 2744 1503 2744 
z
" transform="scale(0.015625)"/>
       <path id="TimesNewRomanPSMT-63" d="M 2631 1088 
Q 2516 522 2178 217 
Q 1841 -88 1431 -88 
Q 944 -88 581 321 
Q 219 731 219 1428 
Q 219 2103 620 2525 
Q 1022 2947 1584 2947 
Q 2006 2947 2278 2723 
Q 2550 2500 2550 2259 
Q 2550 2141 2473 2067 
Q 2397 1994 2259 1994 
Q 2075 1994 1981 2113 
Q 1928 2178 1911 2362 
Q 1894 2547 1784 2644 
Q 1675 2738 1481 2738 
Q 1169 2738 978 2506 
Q 725 2200 725 1697 
Q 725 1184 976 792 
Q 1228 400 1656 400 
Q 1963 400 2206 609 
Q 2378 753 2541 1131 
L 2631 1088 
z
" transform="scale(0.015625)"/>
       <path id="TimesNewRomanPSMT-69" d="M 928 4444 
Q 1059 4444 1151 4351 
Q 1244 4259 1244 4128 
Q 1244 3997 1151 3903 
Q 1059 3809 928 3809 
Q 797 3809 703 3903 
Q 609 3997 609 4128 
Q 609 4259 701 4351 
Q 794 4444 928 4444 
z
M 1188 2947 
L 1188 647 
Q 1188 378 1227 289 
Q 1266 200 1342 156 
Q 1419 113 1622 113 
L 1622 0 
L 231 0 
L 231 113 
Q 441 113 512 153 
Q 584 194 626 287 
Q 669 381 669 647 
L 669 1750 
Q 669 2216 641 2353 
Q 619 2453 572 2492 
Q 525 2531 444 2531 
Q 356 2531 231 2484 
L 188 2597 
L 1050 2947 
L 1188 2947 
z
" transform="scale(0.015625)"/>
       <path id="TimesNewRomanPSMT-74" d="M 1031 3803 
L 1031 2863 
L 1700 2863 
L 1700 2644 
L 1031 2644 
L 1031 788 
Q 1031 509 1111 412 
Q 1191 316 1316 316 
Q 1419 316 1516 380 
Q 1613 444 1666 569 
L 1788 569 
Q 1678 263 1478 108 
Q 1278 -47 1066 -47 
Q 922 -47 784 33 
Q 647 113 581 261 
Q 516 409 516 719 
L 516 2644 
L 63 2644 
L 63 2747 
Q 234 2816 414 2980 
Q 594 3144 734 3369 
Q 806 3488 934 3803 
L 1031 3803 
z
" transform="scale(0.015625)"/>
       <path id="TimesNewRomanPSMT-79" d="M 38 2863 
L 1372 2863 
L 1372 2747 
L 1306 2747 
Q 1166 2747 1095 2686 
Q 1025 2625 1025 2534 
Q 1025 2413 1128 2197 
L 1825 753 
L 2466 2334 
Q 2519 2463 2519 2588 
Q 2519 2644 2497 2672 
Q 2472 2706 2419 2726 
Q 2366 2747 2231 2747 
L 2231 2863 
L 3163 2863 
L 3163 2747 
Q 3047 2734 2984 2696 
Q 2922 2659 2847 2556 
Q 2819 2513 2741 2316 
L 1575 -541 
Q 1406 -956 1132 -1168 
Q 859 -1381 606 -1381 
Q 422 -1381 303 -1275 
Q 184 -1169 184 -1031 
Q 184 -900 270 -820 
Q 356 -741 506 -741 
Q 609 -741 788 -809 
Q 913 -856 944 -856 
Q 1038 -856 1148 -759 
Q 1259 -663 1372 -384 
L 1575 113 
L 547 2272 
Q 500 2369 397 2513 
Q 319 2622 269 2659 
Q 197 2709 38 2747 
L 38 2863 
z
" transform="scale(0.015625)"/>
       <path id="TimesNewRomanPSMT-28" d="M 1988 -1253 
L 1988 -1369 
Q 1516 -1131 1200 -813 
Q 750 -359 506 256 
Q 263 872 263 1534 
Q 263 2503 741 3301 
Q 1219 4100 1988 4444 
L 1988 4313 
Q 1603 4100 1356 3731 
Q 1109 3363 987 2797 
Q 866 2231 866 1616 
Q 866 947 969 400 
Q 1050 -31 1165 -292 
Q 1281 -553 1476 -793 
Q 1672 -1034 1988 -1253 
z
" transform="scale(0.015625)"/>
       <path id="TimesNewRomanPSMT-6d" d="M 1050 2338 
Q 1363 2650 1419 2697 
Q 1559 2816 1721 2881 
Q 1884 2947 2044 2947 
Q 2313 2947 2506 2790 
Q 2700 2634 2766 2338 
Q 3088 2713 3309 2830 
Q 3531 2947 3766 2947 
Q 3994 2947 4170 2830 
Q 4347 2713 4450 2447 
Q 4519 2266 4519 1878 
L 4519 647 
Q 4519 378 4559 278 
Q 4591 209 4675 161 
Q 4759 113 4950 113 
L 4950 0 
L 3538 0 
L 3538 113 
L 3597 113 
Q 3781 113 3884 184 
Q 3956 234 3988 344 
Q 4000 397 4000 647 
L 4000 1878 
Q 4000 2228 3916 2372 
Q 3794 2572 3525 2572 
Q 3359 2572 3192 2489 
Q 3025 2406 2788 2181 
L 2781 2147 
L 2788 2013 
L 2788 647 
Q 2788 353 2820 281 
Q 2853 209 2943 161 
Q 3034 113 3253 113 
L 3253 0 
L 1806 0 
L 1806 113 
Q 2044 113 2133 169 
Q 2222 225 2256 338 
Q 2272 391 2272 647 
L 2272 1878 
Q 2272 2228 2169 2381 
Q 2031 2581 1784 2581 
Q 1616 2581 1450 2491 
Q 1191 2353 1050 2181 
L 1050 647 
Q 1050 366 1089 281 
Q 1128 197 1204 155 
Q 1281 113 1516 113 
L 1516 0 
L 100 0 
L 100 113 
Q 297 113 375 155 
Q 453 197 493 289 
Q 534 381 534 647 
L 534 1741 
Q 534 2213 506 2350 
Q 484 2453 437 2492 
Q 391 2531 309 2531 
Q 222 2531 100 2484 
L 53 2597 
L 916 2947 
L 1050 2947 
L 1050 2338 
z
" transform="scale(0.015625)"/>
       <path id="TimesNewRomanPSMT-2f" d="M 1794 4444 
L 259 -88 
L 9 -88 
L 1544 4444 
L 1794 4444 
z
" transform="scale(0.015625)"/>
       <path id="TimesNewRomanPSMT-73" d="M 2050 2947 
L 2050 1972 
L 1947 1972 
Q 1828 2431 1642 2597 
Q 1456 2763 1169 2763 
Q 950 2763 815 2647 
Q 681 2531 681 2391 
Q 681 2216 781 2091 
Q 878 1963 1175 1819 
L 1631 1597 
Q 2266 1288 2266 781 
Q 2266 391 1970 151 
Q 1675 -88 1309 -88 
Q 1047 -88 709 6 
Q 606 38 541 38 
Q 469 38 428 -44 
L 325 -44 
L 325 978 
L 428 978 
Q 516 541 762 319 
Q 1009 97 1316 97 
Q 1531 97 1667 223 
Q 1803 350 1803 528 
Q 1803 744 1651 891 
Q 1500 1038 1047 1263 
Q 594 1488 453 1669 
Q 313 1847 313 2119 
Q 313 2472 555 2709 
Q 797 2947 1181 2947 
Q 1350 2947 1591 2875 
Q 1750 2828 1803 2828 
Q 1853 2828 1881 2850 
Q 1909 2872 1947 2947 
L 2050 2947 
z
" transform="scale(0.015625)"/>
       <path id="TimesNewRomanPSMT-29" d="M 144 4313 
L 144 4444 
Q 619 4209 934 3891 
Q 1381 3434 1625 2820 
Q 1869 2206 1869 1541 
Q 1869 572 1392 -226 
Q 916 -1025 144 -1369 
L 144 -1253 
Q 528 -1038 776 -670 
Q 1025 -303 1145 264 
Q 1266 831 1266 1447 
Q 1266 2113 1163 2663 
Q 1084 3094 967 3353 
Q 850 3613 656 3853 
Q 463 4094 144 4313 
z
" transform="scale(0.015625)"/>
      </defs>
      <use xlink:href="#TimesNewRomanPSMT-53"/>
      <use xlink:href="#TimesNewRomanPSMT-68" transform="translate(55.615234 0)"/>
      <use xlink:href="#TimesNewRomanPSMT-65" transform="translate(105.615234 0)"/>
      <use xlink:href="#TimesNewRomanPSMT-61" transform="translate(150 0)"/>
      <use xlink:href="#TimesNewRomanPSMT-72" transform="translate(194.384766 0)"/>
      <use xlink:href="#TimesNewRomanPSMT-20" transform="translate(227.685547 0)"/>
      <use xlink:href="#TimesNewRomanPSMT-56" transform="translate(250.935547 0)"/>
      <use xlink:href="#TimesNewRomanPSMT-65" transform="translate(312.027344 0)"/>
      <use xlink:href="#TimesNewRomanPSMT-6c" transform="translate(356.412109 0)"/>
      <use xlink:href="#TimesNewRomanPSMT-6f" transform="translate(384.195312 0)"/>
      <use xlink:href="#TimesNewRomanPSMT-63" transform="translate(434.195312 0)"/>
      <use xlink:href="#TimesNewRomanPSMT-69" transform="translate(478.580078 0)"/>
      <use xlink:href="#TimesNewRomanPSMT-74" transform="translate(506.363281 0)"/>
      <use xlink:href="#TimesNewRomanPSMT-79" transform="translate(534.146484 0)"/>
      <use xlink:href="#TimesNewRomanPSMT-20" transform="translate(584.146484 0)"/>
      <use xlink:href="#TimesNewRomanPSMT-28" transform="translate(609.146484 0)"/>
      <use xlink:href="#TimesNewRomanPSMT-6d" transform="translate(642.447266 0)"/>
      <use xlink:href="#TimesNewRomanPSMT-2f" transform="translate(720.230469 0)"/>
      <use xlink:href="#TimesNewRomanPSMT-73" transform="translate(748.013672 0)"/>
      <use xlink:href="#TimesNewRomanPSMT-29" transform="translate(786.929688 0)"/>
     </g>
    </g>
   </g>
   <g id="matplotlib.axis_2">
    <g id="ytick_1">
     <g id="line2d_4">
      <defs>
       <path id="m58c0f7c68d" d="M 0 0 
L -3.5 0 
" style="stroke: #000000; stroke-width: 0.8"/>
      </defs>
      <g>
       <use xlink:href="#m58c0f7c68d" x="39.40024" y="100.93387" style="stroke: #000000; stroke-width: 0.8"/>
      </g>
     </g>
     <g id="text_5">
      <!-- 1.4 -->
      <g transform="translate(19.90024 104.405745) scale(0.1 -0.1)">
       <defs>
        <path id="TimesNewRomanPSMT-31" d="M 750 3822 
L 1781 4325 
L 1884 4325 
L 1884 747 
Q 1884 391 1914 303 
Q 1944 216 2037 169 
Q 2131 122 2419 116 
L 2419 0 
L 825 0 
L 825 116 
Q 1125 122 1212 167 
Q 1300 213 1334 289 
Q 1369 366 1369 747 
L 1369 3034 
Q 1369 3497 1338 3628 
Q 1316 3728 1258 3775 
Q 1200 3822 1119 3822 
Q 1003 3822 797 3725 
L 750 3822 
z
" transform="scale(0.015625)"/>
       </defs>
       <use xlink:href="#TimesNewRomanPSMT-31"/>
       <use xlink:href="#TimesNewRomanPSMT-2e" transform="translate(50 0)"/>
       <use xlink:href="#TimesNewRomanPSMT-34" transform="translate(75 0)"/>
      </g>
     </g>
    </g>
    <g id="ytick_2">
     <g id="line2d_5">
      <g>
       <use xlink:href="#m58c0f7c68d" x="39.40024" y="79.170841" style="stroke: #000000; stroke-width: 0.8"/>
      </g>
     </g>
     <g id="text_6">
      <!-- 1.6 -->
      <g transform="translate(19.90024 82.642716) scale(0.1 -0.1)">
       <defs>
        <path id="TimesNewRomanPSMT-36" d="M 2869 4325 
L 2869 4209 
Q 2456 4169 2195 4045 
Q 1934 3922 1679 3669 
Q 1425 3416 1258 3105 
Q 1091 2794 978 2366 
Q 1428 2675 1881 2675 
Q 2316 2675 2634 2325 
Q 2953 1975 2953 1425 
Q 2953 894 2631 456 
Q 2244 -75 1606 -75 
Q 1172 -75 869 213 
Q 275 772 275 1663 
Q 275 2231 503 2743 
Q 731 3256 1154 3653 
Q 1578 4050 1965 4187 
Q 2353 4325 2688 4325 
L 2869 4325 
z
M 925 2138 
Q 869 1716 869 1456 
Q 869 1156 980 804 
Q 1091 453 1309 247 
Q 1469 100 1697 100 
Q 1969 100 2183 356 
Q 2397 613 2397 1088 
Q 2397 1622 2184 2012 
Q 1972 2403 1581 2403 
Q 1463 2403 1327 2353 
Q 1191 2303 925 2138 
z
" transform="scale(0.015625)"/>
       </defs>
       <use xlink:href="#TimesNewRomanPSMT-31"/>
       <use xlink:href="#TimesNewRomanPSMT-2e" transform="translate(50 0)"/>
       <use xlink:href="#TimesNewRomanPSMT-36" transform="translate(75 0)"/>
      </g>
     </g>
    </g>
    <g id="ytick_3">
     <g id="line2d_6">
      <g>
       <use xlink:href="#m58c0f7c68d" x="39.40024" y="57.407812" style="stroke: #000000; stroke-width: 0.8"/>
      </g>
     </g>
     <g id="text_7">
      <!-- 1.8 -->
      <g transform="translate(19.90024 60.879687) scale(0.1 -0.1)">
       <defs>
        <path id="TimesNewRomanPSMT-38" d="M 1228 2134 
Q 725 2547 579 2797 
Q 434 3047 434 3316 
Q 434 3728 753 4026 
Q 1072 4325 1600 4325 
Q 2113 4325 2425 4047 
Q 2738 3769 2738 3413 
Q 2738 3175 2569 2928 
Q 2400 2681 1866 2347 
Q 2416 1922 2594 1678 
Q 2831 1359 2831 1006 
Q 2831 559 2490 242 
Q 2150 -75 1597 -75 
Q 994 -75 656 303 
Q 388 606 388 966 
Q 388 1247 577 1523 
Q 766 1800 1228 2134 
z
M 1719 2469 
Q 2094 2806 2194 3001 
Q 2294 3197 2294 3444 
Q 2294 3772 2109 3958 
Q 1925 4144 1606 4144 
Q 1288 4144 1088 3959 
Q 888 3775 888 3528 
Q 888 3366 970 3203 
Q 1053 3041 1206 2894 
L 1719 2469 
z
M 1375 2016 
Q 1116 1797 991 1539 
Q 866 1281 866 981 
Q 866 578 1086 336 
Q 1306 94 1647 94 
Q 1984 94 2187 284 
Q 2391 475 2391 747 
Q 2391 972 2272 1150 
Q 2050 1481 1375 2016 
z
" transform="scale(0.015625)"/>
       </defs>
       <use xlink:href="#TimesNewRomanPSMT-31"/>
       <use xlink:href="#TimesNewRomanPSMT-2e" transform="translate(50 0)"/>
       <use xlink:href="#TimesNewRomanPSMT-38" transform="translate(75 0)"/>
      </g>
     </g>
    </g>
    <g id="ytick_4">
     <g id="line2d_7">
      <g>
       <use xlink:href="#m58c0f7c68d" x="39.40024" y="35.644783" style="stroke: #000000; stroke-width: 0.8"/>
      </g>
     </g>
     <g id="text_8">
      <!-- 2.0 -->
      <g transform="translate(19.90024 39.116658) scale(0.1 -0.1)">
       <use xlink:href="#TimesNewRomanPSMT-32"/>
       <use xlink:href="#TimesNewRomanPSMT-2e" transform="translate(50 0)"/>
       <use xlink:href="#TimesNewRomanPSMT-30" transform="translate(75 0)"/>
      </g>
     </g>
    </g>
    <g id="ytick_5">
     <g id="line2d_8">
      <g>
       <use xlink:href="#m58c0f7c68d" x="39.40024" y="13.881754" style="stroke: #000000; stroke-width: 0.8"/>
      </g>
     </g>
     <g id="text_9">
      <!-- 2.2 -->
      <g transform="translate(19.90024 17.353629) scale(0.1 -0.1)">
       <use xlink:href="#TimesNewRomanPSMT-32"/>
       <use xlink:href="#TimesNewRomanPSMT-2e" transform="translate(50 0)"/>
       <use xlink:href="#TimesNewRomanPSMT-32" transform="translate(75 0)"/>
      </g>
     </g>
    </g>
    <g id="text_10">
     <!-- 3D Fractal Dimension $n_f^{(3D)}$ -->
     <g transform="translate(13.10024 114.157813) rotate(-90) scale(0.1 -0.1)">
      <defs>
       <path id="TimesNewRomanPSMT-44" d="M 109 0 
L 109 116 
L 269 116 
Q 538 116 650 288 
Q 719 391 719 750 
L 719 3488 
Q 719 3884 631 3984 
Q 509 4122 269 4122 
L 109 4122 
L 109 4238 
L 1834 4238 
Q 2784 4238 3279 4022 
Q 3775 3806 4076 3303 
Q 4378 2800 4378 2141 
Q 4378 1256 3841 663 
Q 3238 0 2003 0 
L 109 0 
z
M 1319 306 
Q 1716 219 1984 219 
Q 2709 219 3187 728 
Q 3666 1238 3666 2109 
Q 3666 2988 3187 3494 
Q 2709 4000 1959 4000 
Q 1678 4000 1319 3909 
L 1319 306 
z
" transform="scale(0.015625)"/>
       <path id="TimesNewRomanPSMT-46" d="M 1309 4006 
L 1309 2341 
L 2081 2341 
Q 2347 2341 2470 2458 
Q 2594 2575 2634 2922 
L 2750 2922 
L 2750 1488 
L 2634 1488 
Q 2631 1734 2570 1850 
Q 2509 1966 2401 2023 
Q 2294 2081 2081 2081 
L 1309 2081 
L 1309 750 
Q 1309 428 1350 325 
Q 1381 247 1481 191 
Q 1619 116 1769 116 
L 1922 116 
L 1922 0 
L 103 0 
L 103 116 
L 253 116 
Q 516 116 634 269 
Q 709 369 709 750 
L 709 3488 
Q 709 3809 669 3913 
Q 638 3991 541 4047 
Q 406 4122 253 4122 
L 103 4122 
L 103 4238 
L 3256 4238 
L 3297 3306 
L 3188 3306 
Q 3106 3603 2998 3742 
Q 2891 3881 2733 3943 
Q 2575 4006 2244 4006 
L 1309 4006 
z
" transform="scale(0.015625)"/>
       <path id="TimesNewRomanPSMT-6e" d="M 1034 2341 
Q 1538 2947 1994 2947 
Q 2228 2947 2397 2830 
Q 2566 2713 2666 2444 
Q 2734 2256 2734 1869 
L 2734 647 
Q 2734 375 2778 278 
Q 2813 200 2889 156 
Q 2966 113 3172 113 
L 3172 0 
L 1756 0 
L 1756 113 
L 1816 113 
Q 2016 113 2095 173 
Q 2175 234 2206 353 
Q 2219 400 2219 647 
L 2219 1819 
Q 2219 2209 2117 2386 
Q 2016 2563 1775 2563 
Q 1403 2563 1034 2156 
L 1034 647 
Q 1034 356 1069 288 
Q 1113 197 1189 155 
Q 1266 113 1500 113 
L 1500 0 
L 84 0 
L 84 113 
L 147 113 
Q 366 113 442 223 
Q 519 334 519 647 
L 519 1709 
Q 519 2225 495 2337 
Q 472 2450 423 2490 
Q 375 2531 294 2531 
Q 206 2531 84 2484 
L 38 2597 
L 900 2947 
L 1034 2947 
L 1034 2341 
z
" transform="scale(0.015625)"/>
       <path id="DejaVuSans-Oblique-6e" d="M 3566 2113 
L 3156 0 
L 2578 0 
L 2988 2091 
Q 3016 2238 3031 2350 
Q 3047 2463 3047 2528 
Q 3047 2791 2881 2937 
Q 2716 3084 2419 3084 
Q 1956 3084 1622 2776 
Q 1288 2469 1184 1941 
L 800 0 
L 225 0 
L 903 3500 
L 1478 3500 
L 1363 2950 
Q 1603 3253 1940 3418 
Q 2278 3584 2650 3584 
Q 3113 3584 3367 3334 
Q 3622 3084 3622 2631 
Q 3622 2519 3608 2391 
Q 3594 2263 3566 2113 
z
" transform="scale(0.015625)"/>
       <path id="DejaVuSans-28" d="M 1984 4856 
Q 1566 4138 1362 3434 
Q 1159 2731 1159 2009 
Q 1159 1288 1364 580 
Q 1569 -128 1984 -844 
L 1484 -844 
Q 1016 -109 783 600 
Q 550 1309 550 2009 
Q 550 2706 781 3412 
Q 1013 4119 1484 4856 
L 1984 4856 
z
" transform="scale(0.015625)"/>
       <path id="DejaVuSans-33" d="M 2597 2516 
Q 3050 2419 3304 2112 
Q 3559 1806 3559 1356 
Q 3559 666 3084 287 
Q 2609 -91 1734 -91 
Q 1441 -91 1130 -33 
Q 819 25 488 141 
L 488 750 
Q 750 597 1062 519 
Q 1375 441 1716 441 
Q 2309 441 2620 675 
Q 2931 909 2931 1356 
Q 2931 1769 2642 2001 
Q 2353 2234 1838 2234 
L 1294 2234 
L 1294 2753 
L 1863 2753 
Q 2328 2753 2575 2939 
Q 2822 3125 2822 3475 
Q 2822 3834 2567 4026 
Q 2313 4219 1838 4219 
Q 1578 4219 1281 4162 
Q 984 4106 628 3988 
L 628 4550 
Q 988 4650 1302 4700 
Q 1616 4750 1894 4750 
Q 2613 4750 3031 4423 
Q 3450 4097 3450 3541 
Q 3450 3153 3228 2886 
Q 3006 2619 2597 2516 
z
" transform="scale(0.015625)"/>
       <path id="DejaVuSans-Oblique-44" d="M 1081 4666 
L 2438 4666 
Q 3519 4666 4070 4208 
Q 4622 3750 4622 2847 
Q 4622 2250 4412 1698 
Q 4203 1147 3834 769 
Q 3463 381 2891 190 
Q 2319 0 1538 0 
L 172 0 
L 1081 4666 
z
M 1613 4147 
L 909 519 
L 1734 519 
Q 2794 519 3375 1128 
Q 3956 1738 3956 2847 
Q 3956 3519 3581 3833 
Q 3206 4147 2406 4147 
L 1613 4147 
z
" transform="scale(0.015625)"/>
       <path id="DejaVuSans-29" d="M 513 4856 
L 1013 4856 
Q 1481 4119 1714 3412 
Q 1947 2706 1947 2009 
Q 1947 1309 1714 600 
Q 1481 -109 1013 -844 
L 513 -844 
Q 928 -128 1133 580 
Q 1338 1288 1338 2009 
Q 1338 2731 1133 3434 
Q 928 4138 513 4856 
z
" transform="scale(0.015625)"/>
       <path id="DejaVuSans-Oblique-66" d="M 3059 4863 
L 2969 4384 
L 2419 4384 
Q 2106 4384 1964 4261 
Q 1822 4138 1753 3809 
L 1691 3500 
L 2638 3500 
L 2553 3053 
L 1606 3053 
L 1013 0 
L 434 0 
L 1031 3053 
L 481 3053 
L 563 3500 
L 1113 3500 
L 1159 3744 
Q 1278 4363 1576 4613 
Q 1875 4863 2516 4863 
L 3059 4863 
z
" transform="scale(0.015625)"/>
      </defs>
      <use xlink:href="#TimesNewRomanPSMT-33" transform="translate(0 0.310938)"/>
      <use xlink:href="#TimesNewRomanPSMT-44" transform="translate(50 0.310938)"/>
      <use xlink:href="#TimesNewRomanPSMT-20" transform="translate(122.216797 0.310938)"/>
      <use xlink:href="#TimesNewRomanPSMT-46" transform="translate(147.216797 0.310938)"/>
      <use xlink:href="#TimesNewRomanPSMT-72" transform="translate(202.832031 0.310938)"/>
      <use xlink:href="#TimesNewRomanPSMT-61" transform="translate(236.132812 0.310938)"/>
      <use xlink:href="#TimesNewRomanPSMT-63" transform="translate(280.517578 0.310938)"/>
      <use xlink:href="#TimesNewRomanPSMT-74" transform="translate(324.902344 0.310938)"/>
      <use xlink:href="#TimesNewRomanPSMT-61" transform="translate(352.685547 0.310938)"/>
      <use xlink:href="#TimesNewRomanPSMT-6c" transform="translate(397.070312 0.310938)"/>
      <use xlink:href="#TimesNewRomanPSMT-20" transform="translate(424.853516 0.310938)"/>
      <use xlink:href="#TimesNewRomanPSMT-44" transform="translate(449.853516 0.310938)"/>
      <use xlink:href="#TimesNewRomanPSMT-69" transform="translate(522.070312 0.310938)"/>
      <use xlink:href="#TimesNewRomanPSMT-6d" transform="translate(549.853516 0.310938)"/>
      <use xlink:href="#TimesNewRomanPSMT-65" transform="translate(627.636719 0.310938)"/>
      <use xlink:href="#TimesNewRomanPSMT-6e" transform="translate(672.021484 0.310938)"/>
      <use xlink:href="#TimesNewRomanPSMT-73" transform="translate(722.021484 0.310938)"/>
      <use xlink:href="#TimesNewRomanPSMT-69" transform="translate(760.9375 0.310938)"/>
      <use xlink:href="#TimesNewRomanPSMT-6f" transform="translate(788.720703 0.310938)"/>
      <use xlink:href="#TimesNewRomanPSMT-6e" transform="translate(838.720703 0.310938)"/>
      <use xlink:href="#TimesNewRomanPSMT-20" transform="translate(888.720703 0.310938)"/>
      <use xlink:href="#DejaVuSans-Oblique-6e" transform="translate(913.720703 0.310938)"/>
      <use xlink:href="#DejaVuSans-28" transform="translate(981.749505 47.8875) scale(0.7)"/>
      <use xlink:href="#DejaVuSans-33" transform="translate(1009.059076 47.8875) scale(0.7)"/>
      <use xlink:href="#DejaVuSans-Oblique-44" transform="translate(1050.445208 47.8875) scale(0.7)"/>
      <use xlink:href="#DejaVuSans-29" transform="translate(1104.346576 47.8875) scale(0.7)"/>
      <use xlink:href="#DejaVuSans-Oblique-66" transform="translate(977.099609 -27.032812) scale(0.7)"/>
     </g>
    </g>
   </g>
   <g id="patch_3">
    <path d="M 39.40024 111.815385 
L 39.40024 3.00024 
" style="fill: none; stroke: #000000; stroke-width: 0.8; stroke-linejoin: miter; stroke-linecap: square"/>
   </g>
   <g id="patch_4">
    <path d="M 146.25296 111.815385 
L 146.25296 3.00024 
" style="fill: none; stroke: #000000; stroke-width: 0.8; stroke-linejoin: miter; stroke-linecap: square"/>
   </g>
   <g id="patch_5">
    <path d="M 39.40024 111.815385 
L 146.25296 111.815385 
" style="fill: none; stroke: #000000; stroke-width: 0.8; stroke-linejoin: miter; stroke-linecap: square"/>
   </g>
   <g id="patch_6">
    <path d="M 39.40024 3.00024 
L 146.25296 3.00024 
" style="fill: none; stroke: #000000; stroke-width: 0.8; stroke-linejoin: miter; stroke-linecap: square"/>
   </g>
   <g id="text_11">
    <!-- $n_f^{3D}$ = 17.4$\,u_*$ + 1.42 -->
    <g style="fill: #7bc8a4" transform="translate(42.605822 97.077568) scale(0.06 -0.06)">
     <defs>
      <path id="TimesNewRomanPSMT-3d" d="M 116 2759 
L 3488 2759 
L 3488 2503 
L 116 2503 
L 116 2759 
z
M 116 1741 
L 3488 1741 
L 3488 1484 
L 116 1484 
L 116 1741 
z
" transform="scale(0.015625)"/>
      <path id="TimesNewRomanPSMT-37" d="M 644 4238 
L 2916 4238 
L 2916 4119 
L 1503 -88 
L 1153 -88 
L 2419 3728 
L 1253 3728 
Q 900 3728 750 3644 
Q 488 3500 328 3200 
L 238 3234 
L 644 4238 
z
" transform="scale(0.015625)"/>
      <path id="DejaVuSans-Oblique-75" d="M 428 1388 
L 838 3500 
L 1416 3500 
L 1006 1409 
Q 975 1256 961 1147 
Q 947 1038 947 966 
Q 947 700 1109 554 
Q 1272 409 1569 409 
Q 2031 409 2368 721 
Q 2706 1034 2809 1563 
L 3194 3500 
L 3769 3500 
L 3091 0 
L 2516 0 
L 2631 550 
Q 2388 244 2052 76 
Q 1716 -91 1338 -91 
Q 878 -91 622 161 
Q 366 413 366 863 
Q 366 956 381 1097 
Q 397 1238 428 1388 
z
" transform="scale(0.015625)"/>
      <path id="DejaVuSans-2a" d="M 3009 3897 
L 1888 3291 
L 3009 2681 
L 2828 2375 
L 1778 3009 
L 1778 1831 
L 1422 1831 
L 1422 3009 
L 372 2375 
L 191 2681 
L 1313 3291 
L 191 3897 
L 372 4206 
L 1422 3572 
L 1422 4750 
L 1778 4750 
L 1778 3572 
L 2828 4206 
L 3009 3897 
z
" transform="scale(0.015625)"/>
      <path id="TimesNewRomanPSMT-2b" d="M 1672 441 
L 1672 2000 
L 116 2000 
L 116 2256 
L 1672 2256 
L 1672 3809 
L 1922 3809 
L 1922 2256 
L 3484 2256 
L 3484 2000 
L 1922 2000 
L 1922 441 
L 1672 441 
z
" transform="scale(0.015625)"/>
     </defs>
     <use xlink:href="#DejaVuSans-Oblique-6e" transform="translate(0 0.70625)"/>
     <use xlink:href="#DejaVuSans-33" transform="translate(68.028802 40.046875) scale(0.7)"/>
     <use xlink:href="#DejaVuSans-Oblique-44" transform="translate(109.414935 40.046875) scale(0.7)"/>
     <use xlink:href="#DejaVuSans-Oblique-66" transform="translate(63.378906 -26.6375) scale(0.7)"/>
     <use xlink:href="#TimesNewRomanPSMT-20" transform="translate(166.050677 0.70625)"/>
     <use xlink:href="#TimesNewRomanPSMT-3d" transform="translate(191.050677 0.70625)"/>
     <use xlink:href="#TimesNewRomanPSMT-20" transform="translate(247.447161 0.70625)"/>
     <use xlink:href="#TimesNewRomanPSMT-31" transform="translate(272.447161 0.70625)"/>
     <use xlink:href="#TimesNewRomanPSMT-37" transform="translate(322.447161 0.70625)"/>
     <use xlink:href="#TimesNewRomanPSMT-2e" transform="translate(372.447161 0.70625)"/>
     <use xlink:href="#TimesNewRomanPSMT-34" transform="translate(397.447161 0.70625)"/>
     <use xlink:href="#DejaVuSans-Oblique-75" transform="translate(463.682838 0.70625)"/>
     <use xlink:href="#DejaVuSans-2a" transform="translate(540.699439 -15.7) scale(0.7)"/>
     <use xlink:href="#TimesNewRomanPSMT-20" transform="translate(592.07151 0.70625)"/>
     <use xlink:href="#TimesNewRomanPSMT-2b" transform="translate(617.07151 0.70625)"/>
     <use xlink:href="#TimesNewRomanPSMT-20" transform="translate(673.467994 0.70625)"/>
     <use xlink:href="#TimesNewRomanPSMT-31" transform="translate(698.467994 0.70625)"/>
     <use xlink:href="#TimesNewRomanPSMT-2e" transform="translate(748.467994 0.70625)"/>
     <use xlink:href="#TimesNewRomanPSMT-34" transform="translate(773.467994 0.70625)"/>
     <use xlink:href="#TimesNewRomanPSMT-32" transform="translate(823.467994 0.70625)"/>
    </g>
   </g>
   <g id="text_12">
    <!-- $n_f^{3D}$ = 1.0$\,u_*$ + 1.94 -->
    <g style="fill: #2e4057" transform="translate(42.605822 105.782779) scale(0.06 -0.06)">
     <defs>
      <path id="TimesNewRomanPSMT-39" d="M 338 -88 
L 338 28 
Q 744 34 1094 217 
Q 1444 400 1770 856 
Q 2097 1313 2225 1859 
Q 1734 1544 1338 1544 
Q 891 1544 572 1889 
Q 253 2234 253 2806 
Q 253 3363 572 3797 
Q 956 4325 1575 4325 
Q 2097 4325 2469 3894 
Q 2925 3359 2925 2575 
Q 2925 1869 2578 1258 
Q 2231 647 1613 244 
Q 1109 -88 516 -88 
L 338 -88 
z
M 2275 2091 
Q 2331 2497 2331 2741 
Q 2331 3044 2228 3395 
Q 2125 3747 1936 3934 
Q 1747 4122 1506 4122 
Q 1228 4122 1018 3872 
Q 809 3622 809 3128 
Q 809 2469 1088 2097 
Q 1291 1828 1588 1828 
Q 1731 1828 1928 1897 
Q 2125 1966 2275 2091 
z
" transform="scale(0.015625)"/>
     </defs>
     <use xlink:href="#DejaVuSans-Oblique-6e" transform="translate(0 0.70625)"/>
     <use xlink:href="#DejaVuSans-33" transform="translate(68.028802 40.046875) scale(0.7)"/>
     <use xlink:href="#DejaVuSans-Oblique-44" transform="translate(109.414935 40.046875) scale(0.7)"/>
     <use xlink:href="#DejaVuSans-Oblique-66" transform="translate(63.378906 -26.6375) scale(0.7)"/>
     <use xlink:href="#TimesNewRomanPSMT-20" transform="translate(166.050677 0.70625)"/>
     <use xlink:href="#TimesNewRomanPSMT-3d" transform="translate(191.050677 0.70625)"/>
     <use xlink:href="#TimesNewRomanPSMT-20" transform="translate(247.447161 0.70625)"/>
     <use xlink:href="#TimesNewRomanPSMT-31" transform="translate(272.447161 0.70625)"/>
     <use xlink:href="#TimesNewRomanPSMT-2e" transform="translate(322.447161 0.70625)"/>
     <use xlink:href="#TimesNewRomanPSMT-30" transform="translate(347.447161 0.70625)"/>
     <use xlink:href="#DejaVuSans-Oblique-75" transform="translate(413.682838 0.70625)"/>
     <use xlink:href="#DejaVuSans-2a" transform="translate(490.699439 -15.7) scale(0.7)"/>
     <use xlink:href="#TimesNewRomanPSMT-20" transform="translate(542.07151 0.70625)"/>
     <use xlink:href="#TimesNewRomanPSMT-2b" transform="translate(567.07151 0.70625)"/>
     <use xlink:href="#TimesNewRomanPSMT-20" transform="translate(623.467994 0.70625)"/>
     <use xlink:href="#TimesNewRomanPSMT-31" transform="translate(648.467994 0.70625)"/>
     <use xlink:href="#TimesNewRomanPSMT-2e" transform="translate(698.467994 0.70625)"/>
     <use xlink:href="#TimesNewRomanPSMT-39" transform="translate(723.467994 0.70625)"/>
     <use xlink:href="#TimesNewRomanPSMT-34" transform="translate(773.467994 0.70625)"/>
    </g>
   </g>
   <g id="legend_1">
    <g id="line2d_9">
     <path d="M 44.80024 10.50024 
L 50.80024 10.50024 
L 56.80024 10.50024 
" style="fill: none; stroke: #7bc8a4; stroke-width: 1.8; stroke-linecap: square"/>
     <defs>
      <path id="m124a70261d" d="M 0 3.5 
C 0.928211 3.5 1.81853 3.131218 2.474874 2.474874 
C 3.131218 1.81853 3.5 0.928211 3.5 0 
C 3.5 -0.928211 3.131218 -1.81853 2.474874 -2.474874 
C 1.81853 -3.131218 0.928211 -3.5 0 -3.5 
C -0.928211 -3.5 -1.81853 -3.131218 -2.474874 -2.474874 
C -3.131218 -1.81853 -3.5 -0.928211 -3.5 0 
C -3.5 0.928211 -3.131218 1.81853 -2.474874 2.474874 
C -1.81853 3.131218 -0.928211 3.5 0 3.5 
z
" style="stroke: #000000; stroke-opacity: 0"/>
     </defs>
     <g>
      <use xlink:href="#m124a70261d" x="50.80024" y="10.50024" style="fill: #7bc8a4; stroke: #000000; stroke-opacity: 0"/>
     </g>
    </g>
    <g id="text_13">
     <!-- Stratified -->
     <g transform="translate(61.60024 12.60024) scale(0.06 -0.06)">
      <defs>
       <path id="TimesNewRomanPSMT-66" d="M 1319 2638 
L 1319 756 
Q 1319 356 1406 250 
Q 1522 113 1716 113 
L 1975 113 
L 1975 0 
L 266 0 
L 266 113 
L 394 113 
Q 519 113 622 175 
Q 725 238 764 344 
Q 803 450 803 756 
L 803 2638 
L 247 2638 
L 247 2863 
L 803 2863 
L 803 3050 
Q 803 3478 940 3775 
Q 1078 4072 1361 4255 
Q 1644 4438 1997 4438 
Q 2325 4438 2600 4225 
Q 2781 4084 2781 3909 
Q 2781 3816 2700 3733 
Q 2619 3650 2525 3650 
Q 2453 3650 2373 3701 
Q 2294 3753 2178 3923 
Q 2063 4094 1966 4153 
Q 1869 4213 1750 4213 
Q 1606 4213 1506 4136 
Q 1406 4059 1362 3898 
Q 1319 3738 1319 3069 
L 1319 2863 
L 2056 2863 
L 2056 2638 
L 1319 2638 
z
" transform="scale(0.015625)"/>
       <path id="TimesNewRomanPSMT-64" d="M 2222 322 
Q 2013 103 1813 7 
Q 1613 -88 1381 -88 
Q 913 -88 563 304 
Q 213 697 213 1313 
Q 213 1928 600 2439 
Q 988 2950 1597 2950 
Q 1975 2950 2222 2709 
L 2222 3238 
Q 2222 3728 2198 3840 
Q 2175 3953 2125 3993 
Q 2075 4034 2000 4034 
Q 1919 4034 1784 3984 
L 1744 4094 
L 2597 4444 
L 2738 4444 
L 2738 1134 
Q 2738 631 2761 520 
Q 2784 409 2836 365 
Q 2888 322 2956 322 
Q 3041 322 3181 375 
L 3216 266 
L 2366 -88 
L 2222 -88 
L 2222 322 
z
M 2222 541 
L 2222 2016 
Q 2203 2228 2109 2403 
Q 2016 2578 1861 2667 
Q 1706 2756 1559 2756 
Q 1284 2756 1069 2509 
Q 784 2184 784 1559 
Q 784 928 1059 592 
Q 1334 256 1672 256 
Q 1956 256 2222 541 
z
" transform="scale(0.015625)"/>
      </defs>
      <use xlink:href="#TimesNewRomanPSMT-53"/>
      <use xlink:href="#TimesNewRomanPSMT-74" transform="translate(55.615234 0)"/>
      <use xlink:href="#TimesNewRomanPSMT-72" transform="translate(83.398438 0)"/>
      <use xlink:href="#TimesNewRomanPSMT-61" transform="translate(116.699219 0)"/>
      <use xlink:href="#TimesNewRomanPSMT-74" transform="translate(161.083984 0)"/>
      <use xlink:href="#TimesNewRomanPSMT-69" transform="translate(188.867188 0)"/>
      <use xlink:href="#TimesNewRomanPSMT-66" transform="translate(216.650391 0)"/>
      <use xlink:href="#TimesNewRomanPSMT-69" transform="translate(249.951172 0)"/>
      <use xlink:href="#TimesNewRomanPSMT-65" transform="translate(277.734375 0)"/>
      <use xlink:href="#TimesNewRomanPSMT-64" transform="translate(322.119141 0)"/>
     </g>
    </g>
    <g id="line2d_10">
     <path d="M 44.80024 18.983678 
L 50.80024 18.983678 
L 56.80024 18.983678 
" style="fill: none; stroke: #2e4057; stroke-width: 1.8; stroke-linecap: square"/>
     <defs>
      <path id="mc7903a8c65" d="M 0 3.5 
C 0.928211 3.5 1.81853 3.131218 2.474874 2.474874 
C 3.131218 1.81853 3.5 0.928211 3.5 0 
C 3.5 -0.928211 3.131218 -1.81853 2.474874 -2.474874 
C 1.81853 -3.131218 0.928211 -3.5 0 -3.5 
C -0.928211 -3.5 -1.81853 -3.131218 -2.474874 -2.474874 
C -3.131218 -1.81853 -3.5 -0.928211 -3.5 0 
C -3.5 0.928211 -3.131218 1.81853 -2.474874 2.474874 
C -1.81853 3.131218 -0.928211 3.5 0 3.5 
z
" style="stroke: #000000; stroke-opacity: 0"/>
     </defs>
     <g>
      <use xlink:href="#mc7903a8c65" x="50.80024" y="18.983678" style="fill: #2e4057; stroke: #000000; stroke-opacity: 0"/>
     </g>
    </g>
    <g id="text_14">
     <!-- Aggregated -->
     <g transform="translate(61.60024 21.083678) scale(0.06 -0.06)">
      <defs>
       <path id="TimesNewRomanPSMT-41" d="M 2928 1419 
L 1288 1419 
L 1000 750 
Q 894 503 894 381 
Q 894 284 986 211 
Q 1078 138 1384 116 
L 1384 0 
L 50 0 
L 50 116 
Q 316 163 394 238 
Q 553 388 747 847 
L 2238 4334 
L 2347 4334 
L 3822 809 
Q 4000 384 4145 257 
Q 4291 131 4550 116 
L 4550 0 
L 2878 0 
L 2878 116 
Q 3131 128 3220 200 
Q 3309 272 3309 375 
Q 3309 513 3184 809 
L 2928 1419 
z
M 2841 1650 
L 2122 3363 
L 1384 1650 
L 2841 1650 
z
" transform="scale(0.015625)"/>
       <path id="TimesNewRomanPSMT-67" d="M 966 1044 
Q 703 1172 562 1401 
Q 422 1631 422 1909 
Q 422 2334 742 2640 
Q 1063 2947 1563 2947 
Q 1972 2947 2272 2747 
L 2878 2747 
Q 3013 2747 3034 2739 
Q 3056 2731 3066 2713 
Q 3084 2684 3084 2613 
Q 3084 2531 3069 2500 
Q 3059 2484 3036 2475 
Q 3013 2466 2878 2466 
L 2506 2466 
Q 2681 2241 2681 1891 
Q 2681 1491 2375 1206 
Q 2069 922 1553 922 
Q 1341 922 1119 984 
Q 981 866 932 777 
Q 884 688 884 625 
Q 884 572 936 522 
Q 988 472 1138 450 
Q 1225 438 1575 428 
Q 2219 413 2409 384 
Q 2700 344 2873 169 
Q 3047 -6 3047 -263 
Q 3047 -616 2716 -925 
Q 2228 -1381 1444 -1381 
Q 841 -1381 425 -1109 
Q 191 -953 191 -784 
Q 191 -709 225 -634 
Q 278 -519 444 -313 
Q 466 -284 763 25 
Q 600 122 533 198 
Q 466 275 466 372 
Q 466 481 555 628 
Q 644 775 966 1044 
z
M 1509 2797 
Q 1278 2797 1122 2612 
Q 966 2428 966 2047 
Q 966 1553 1178 1281 
Q 1341 1075 1591 1075 
Q 1828 1075 1981 1253 
Q 2134 1431 2134 1813 
Q 2134 2309 1919 2591 
Q 1759 2797 1509 2797 
z
M 934 0 
Q 788 -159 713 -296 
Q 638 -434 638 -550 
Q 638 -700 819 -813 
Q 1131 -1006 1722 -1006 
Q 2284 -1006 2551 -807 
Q 2819 -609 2819 -384 
Q 2819 -222 2659 -153 
Q 2497 -84 2016 -72 
Q 1313 -53 934 0 
z
" transform="scale(0.015625)"/>
      </defs>
      <use xlink:href="#TimesNewRomanPSMT-41"/>
      <use xlink:href="#TimesNewRomanPSMT-67" transform="translate(72.216797 0)"/>
      <use xlink:href="#TimesNewRomanPSMT-67" transform="translate(122.216797 0)"/>
      <use xlink:href="#TimesNewRomanPSMT-72" transform="translate(172.216797 0)"/>
      <use xlink:href="#TimesNewRomanPSMT-65" transform="translate(205.517578 0)"/>
      <use xlink:href="#TimesNewRomanPSMT-67" transform="translate(249.902344 0)"/>
      <use xlink:href="#TimesNewRomanPSMT-61" transform="translate(299.902344 0)"/>
      <use xlink:href="#TimesNewRomanPSMT-74" transform="translate(344.287109 0)"/>
      <use xlink:href="#TimesNewRomanPSMT-65" transform="translate(372.070312 0)"/>
      <use xlink:href="#TimesNewRomanPSMT-64" transform="translate(416.455078 0)"/>
     </g>
    </g>
   </g>
   <g id="LineCollection_1">
    <path d="M 44.257182 66.765915 
L 44.257182 40.21502 
" clip-path="url(#p846e1bdace)" style="fill: none; stroke: #7bc8a4; stroke-width: 1.2"/>
    <path d="M 92.8266 44.676441 
L 92.8266 36.188859 
" clip-path="url(#p846e1bdace)" style="fill: none; stroke: #7bc8a4; stroke-width: 1.2"/>
    <path d="M 141.396018 27.701278 
L 141.396018 17.581469 
" clip-path="url(#p846e1bdace)" style="fill: none; stroke: #7bc8a4; stroke-width: 1.2"/>
   </g>
   <g id="line2d_11">
    <defs>
     <path id="m1cd0dd4b17" d="M 3 0 
L -3 -0 
" style="stroke: #7bc8a4; stroke-width: 1.2"/>
    </defs>
    <g clip-path="url(#p846e1bdace)">
     <use xlink:href="#m1cd0dd4b17" x="44.257182" y="66.765915" style="fill: #1f77b4; stroke: #7bc8a4; stroke-width: 1.2"/>
     <use xlink:href="#m1cd0dd4b17" x="92.8266" y="44.676441" style="fill: #1f77b4; stroke: #7bc8a4; stroke-width: 1.2"/>
     <use xlink:href="#m1cd0dd4b17" x="141.396018" y="27.701278" style="fill: #1f77b4; stroke: #7bc8a4; stroke-width: 1.2"/>
    </g>
   </g>
   <g id="line2d_12">
    <g clip-path="url(#p846e1bdace)">
     <use xlink:href="#m1cd0dd4b17" x="44.257182" y="40.21502" style="fill: #1f77b4; stroke: #7bc8a4; stroke-width: 1.2"/>
     <use xlink:href="#m1cd0dd4b17" x="92.8266" y="36.188859" style="fill: #1f77b4; stroke: #7bc8a4; stroke-width: 1.2"/>
     <use xlink:href="#m1cd0dd4b17" x="141.396018" y="17.581469" style="fill: #1f77b4; stroke: #7bc8a4; stroke-width: 1.2"/>
    </g>
   </g>
   <g id="LineCollection_2">
    <path d="M 44.257182 48.376155 
L 44.257182 28.136538 
" clip-path="url(#p846e1bdace)" style="fill: none; stroke: #2e4057; stroke-width: 1.2"/>
    <path d="M 92.8266 55.340325 
L 92.8266 29.00706 
" clip-path="url(#p846e1bdace)" style="fill: none; stroke: #2e4057; stroke-width: 1.2"/>
    <path d="M 141.396018 47.723265 
L 141.396018 24.436824 
" clip-path="url(#p846e1bdace)" style="fill: none; stroke: #2e4057; stroke-width: 1.2"/>
   </g>
   <g id="line2d_13">
    <defs>
     <path id="m5ffda572f9" d="M 3 0 
L -3 -0 
" style="stroke: #2e4057; stroke-width: 1.2"/>
    </defs>
    <g clip-path="url(#p846e1bdace)">
     <use xlink:href="#m5ffda572f9" x="44.257182" y="48.376155" style="fill: #1f77b4; stroke: #2e4057; stroke-width: 1.2"/>
     <use xlink:href="#m5ffda572f9" x="92.8266" y="55.340325" style="fill: #1f77b4; stroke: #2e4057; stroke-width: 1.2"/>
     <use xlink:href="#m5ffda572f9" x="141.396018" y="47.723265" style="fill: #1f77b4; stroke: #2e4057; stroke-width: 1.2"/>
    </g>
   </g>
   <g id="line2d_14">
    <g clip-path="url(#p846e1bdace)">
     <use xlink:href="#m5ffda572f9" x="44.257182" y="28.136538" style="fill: #1f77b4; stroke: #2e4057; stroke-width: 1.2"/>
     <use xlink:href="#m5ffda572f9" x="92.8266" y="29.00706" style="fill: #1f77b4; stroke: #2e4057; stroke-width: 1.2"/>
     <use xlink:href="#m5ffda572f9" x="141.396018" y="24.436824" style="fill: #1f77b4; stroke: #2e4057; stroke-width: 1.2"/>
    </g>
   </g>
   <g id="line2d_15">
    <path d="M 44.257182 61.107527 
L 92.8266 40.976726 
L 141.396018 23.131042 
" clip-path="url(#p846e1bdace)" style="fill: none; stroke: #7bc8a4; stroke-width: 1.8; stroke-linecap: square"/>
    <g clip-path="url(#p846e1bdace)">
     <use xlink:href="#m124a70261d" x="44.257182" y="61.107527" style="fill: #7bc8a4; stroke: #000000; stroke-opacity: 0"/>
     <use xlink:href="#m124a70261d" x="92.8266" y="40.976726" style="fill: #7bc8a4; stroke: #000000; stroke-opacity: 0"/>
     <use xlink:href="#m124a70261d" x="141.396018" y="23.131042" style="fill: #7bc8a4; stroke: #000000; stroke-opacity: 0"/>
    </g>
   </g>
   <g id="line2d_16">
    <path d="M 44.257182 38.256347 
L 92.8266 42.173692 
L 141.396018 36.080044 
" clip-path="url(#p846e1bdace)" style="fill: none; stroke: #2e4057; stroke-width: 1.8; stroke-linecap: square"/>
    <g clip-path="url(#p846e1bdace)">
     <use xlink:href="#mc7903a8c65" x="44.257182" y="38.256347" style="fill: #2e4057; stroke: #000000; stroke-opacity: 0"/>
     <use xlink:href="#mc7903a8c65" x="92.8266" y="42.173692" style="fill: #2e4057; stroke: #000000; stroke-opacity: 0"/>
     <use xlink:href="#mc7903a8c65" x="141.396018" y="36.080044" style="fill: #2e4057; stroke: #000000; stroke-opacity: 0"/>
    </g>
   </g>
  </g>
  <g id="axes_2">
   <g id="patch_7">
    <path d="M 192.54704 111.815385 
L 299.39976 111.815385 
L 299.39976 3.00024 
L 192.54704 3.00024 
z
" style="fill: #ffffff"/>
   </g>
   <g id="FillBetweenPolyCollection_3">
    <defs>
     <path id="mf3cb04bc36" d="M 197.403982 -98.453038 
L 197.403982 -82.783657 
L 245.9734 -59.606032 
L 294.542818 -57.538544 
L 294.542818 -79.519203 
L 294.542818 -79.519203 
L 245.9734 -82.130767 
L 197.403982 -98.453038 
z
"/>
    </defs>
    <g clip-path="url(#p75df788d03)">
     <use xlink:href="#mf3cb04bc36" x="0" y="144" style="fill: #7bc8a4; fill-opacity: 0.2"/>
    </g>
   </g>
   <g id="FillBetweenPolyCollection_4">
    <defs>
     <path id="med7d18986c" d="M 197.403982 -112.599007 
L 197.403982 -60.476553 
L 245.9734 -60.258922 
L 294.542818 -66.679016 
L 294.542818 -94.862139 
L 294.542818 -94.862139 
L 245.9734 -99.323559 
L 197.403982 -112.599007 
z
"/>
    </defs>
    <g clip-path="url(#p75df788d03)">
     <use xlink:href="#med7d18986c" x="0" y="144" style="fill: #2e4057; fill-opacity: 0.2"/>
    </g>
   </g>
   <g id="matplotlib.axis_3">
    <g id="xtick_4">
     <g id="line2d_17">
      <g>
       <use xlink:href="#m3716483c67" x="197.403982" y="111.815385" style="stroke: #000000; stroke-width: 0.8"/>
      </g>
     </g>
     <g id="text_15">
      <!-- 1 -->
      <g transform="translate(194.903982 125.759135) scale(0.1 -0.1)">
       <use xlink:href="#TimesNewRomanPSMT-31"/>
      </g>
     </g>
    </g>
    <g id="xtick_5">
     <g id="line2d_18">
      <g>
       <use xlink:href="#m3716483c67" x="245.9734" y="111.815385" style="stroke: #000000; stroke-width: 0.8"/>
      </g>
     </g>
     <g id="text_16">
      <!-- 2 -->
      <g transform="translate(243.4734 125.759135) scale(0.1 -0.1)">
       <use xlink:href="#TimesNewRomanPSMT-32"/>
      </g>
     </g>
    </g>
    <g id="xtick_6">
     <g id="line2d_19">
      <g>
       <use xlink:href="#m3716483c67" x="294.542818" y="111.815385" style="stroke: #000000; stroke-width: 0.8"/>
      </g>
     </g>
     <g id="text_17">
      <!-- 3 -->
      <g transform="translate(292.042818 125.759135) scale(0.1 -0.1)">
       <use xlink:href="#TimesNewRomanPSMT-33"/>
      </g>
     </g>
    </g>
    <g id="text_18">
     <!-- Organic Matter (%) -->
     <g transform="translate(206.634337 138.841948) scale(0.1 -0.1)">
      <defs>
       <path id="TimesNewRomanPSMT-4f" d="M 2341 4334 
Q 3166 4334 3770 3707 
Q 4375 3081 4375 2144 
Q 4375 1178 3765 540 
Q 3156 -97 2291 -97 
Q 1416 -97 820 525 
Q 225 1147 225 2134 
Q 225 3144 913 3781 
Q 1509 4334 2341 4334 
z
M 2281 4106 
Q 1713 4106 1369 3684 
Q 941 3159 941 2147 
Q 941 1109 1384 550 
Q 1725 125 2284 125 
Q 2881 125 3270 590 
Q 3659 1056 3659 2059 
Q 3659 3147 3231 3681 
Q 2888 4106 2281 4106 
z
" transform="scale(0.015625)"/>
       <path id="TimesNewRomanPSMT-4d" d="M 2619 0 
L 981 3566 
L 981 734 
Q 981 344 1066 247 
Q 1181 116 1431 116 
L 1581 116 
L 1581 0 
L 106 0 
L 106 116 
L 256 116 
Q 525 116 638 278 
Q 706 378 706 734 
L 706 3503 
Q 706 3784 644 3909 
Q 600 4000 483 4061 
Q 366 4122 106 4122 
L 106 4238 
L 1306 4238 
L 2844 922 
L 4356 4238 
L 5556 4238 
L 5556 4122 
L 5409 4122 
Q 5138 4122 5025 3959 
Q 4956 3859 4956 3503 
L 4956 734 
Q 4956 344 5044 247 
Q 5159 116 5409 116 
L 5556 116 
L 5556 0 
L 3756 0 
L 3756 116 
L 3906 116 
Q 4178 116 4288 278 
Q 4356 378 4356 734 
L 4356 3566 
L 2722 0 
L 2619 0 
z
" transform="scale(0.015625)"/>
       <path id="TimesNewRomanPSMT-25" d="M 4350 4334 
L 1263 -175 
L 984 -175 
L 4072 4334 
L 4350 4334 
z
M 1138 4334 
Q 1559 4334 1792 3984 
Q 2025 3634 2025 3181 
Q 2025 2638 1762 2341 
Q 1500 2044 1131 2044 
Q 884 2044 678 2180 
Q 472 2316 348 2584 
Q 225 2853 225 3181 
Q 225 3509 350 3786 
Q 475 4063 692 4198 
Q 909 4334 1138 4334 
z
M 1128 4159 
Q 969 4159 845 3971 
Q 722 3784 722 3184 
Q 722 2750 791 2522 
Q 844 2350 956 2256 
Q 1022 2200 1119 2200 
Q 1269 2200 1375 2363 
Q 1531 2603 1531 3166 
Q 1531 3759 1378 4000 
Q 1278 4159 1128 4159 
z
M 4206 2103 
Q 4428 2103 4648 1962 
Q 4869 1822 4989 1553 
Q 5109 1284 5109 963 
Q 5109 409 4843 117 
Q 4578 -175 4216 -175 
Q 3988 -175 3773 -34 
Q 3559 106 3436 367 
Q 3313 628 3313 963 
Q 3313 1291 3436 1562 
Q 3559 1834 3773 1968 
Q 3988 2103 4206 2103 
z
M 4209 1938 
Q 4059 1938 3950 1769 
Q 3809 1550 3809 941 
Q 3809 381 3953 159 
Q 4059 0 4209 0 
Q 4353 0 4466 172 
Q 4616 400 4616 956 
Q 4616 1544 4466 1778 
Q 4363 1938 4209 1938 
z
" transform="scale(0.015625)"/>
      </defs>
      <use xlink:href="#TimesNewRomanPSMT-4f"/>
      <use xlink:href="#TimesNewRomanPSMT-72" transform="translate(72.216797 0)"/>
      <use xlink:href="#TimesNewRomanPSMT-67" transform="translate(103.767578 0)"/>
      <use xlink:href="#TimesNewRomanPSMT-61" transform="translate(153.767578 0)"/>
      <use xlink:href="#TimesNewRomanPSMT-6e" transform="translate(198.152344 0)"/>
      <use xlink:href="#TimesNewRomanPSMT-69" transform="translate(248.152344 0)"/>
      <use xlink:href="#TimesNewRomanPSMT-63" transform="translate(275.935547 0)"/>
      <use xlink:href="#TimesNewRomanPSMT-20" transform="translate(320.320312 0)"/>
      <use xlink:href="#TimesNewRomanPSMT-4d" transform="translate(345.320312 0)"/>
      <use xlink:href="#TimesNewRomanPSMT-61" transform="translate(434.236328 0)"/>
      <use xlink:href="#TimesNewRomanPSMT-74" transform="translate(478.621094 0)"/>
      <use xlink:href="#TimesNewRomanPSMT-74" transform="translate(506.404297 0)"/>
      <use xlink:href="#TimesNewRomanPSMT-65" transform="translate(534.1875 0)"/>
      <use xlink:href="#TimesNewRomanPSMT-72" transform="translate(578.572266 0)"/>
      <use xlink:href="#TimesNewRomanPSMT-20" transform="translate(611.873047 0)"/>
      <use xlink:href="#TimesNewRomanPSMT-28" transform="translate(636.873047 0)"/>
      <use xlink:href="#TimesNewRomanPSMT-25" transform="translate(670.173828 0)"/>
      <use xlink:href="#TimesNewRomanPSMT-29" transform="translate(753.474609 0)"/>
     </g>
    </g>
   </g>
   <g id="matplotlib.axis_4">
    <g id="ytick_6">
     <g id="line2d_20">
      <g>
       <use xlink:href="#m58c0f7c68d" x="192.54704" y="100.93387" style="stroke: #000000; stroke-width: 0.8"/>
      </g>
     </g>
     <g id="text_19">
      <!-- 1.4 -->
      <g transform="translate(173.04704 104.405745) scale(0.1 -0.1)">
       <use xlink:href="#TimesNewRomanPSMT-31"/>
       <use xlink:href="#TimesNewRomanPSMT-2e" transform="translate(50 0)"/>
       <use xlink:href="#TimesNewRomanPSMT-34" transform="translate(75 0)"/>
      </g>
     </g>
    </g>
    <g id="ytick_7">
     <g id="line2d_21">
      <g>
       <use xlink:href="#m58c0f7c68d" x="192.54704" y="79.170841" style="stroke: #000000; stroke-width: 0.8"/>
      </g>
     </g>
     <g id="text_20">
      <!-- 1.6 -->
      <g transform="translate(173.04704 82.642716) scale(0.1 -0.1)">
       <use xlink:href="#TimesNewRomanPSMT-31"/>
       <use xlink:href="#TimesNewRomanPSMT-2e" transform="translate(50 0)"/>
       <use xlink:href="#TimesNewRomanPSMT-36" transform="translate(75 0)"/>
      </g>
     </g>
    </g>
    <g id="ytick_8">
     <g id="line2d_22">
      <g>
       <use xlink:href="#m58c0f7c68d" x="192.54704" y="57.407812" style="stroke: #000000; stroke-width: 0.8"/>
      </g>
     </g>
     <g id="text_21">
      <!-- 1.8 -->
      <g transform="translate(173.04704 60.879687) scale(0.1 -0.1)">
       <use xlink:href="#TimesNewRomanPSMT-31"/>
       <use xlink:href="#TimesNewRomanPSMT-2e" transform="translate(50 0)"/>
       <use xlink:href="#TimesNewRomanPSMT-38" transform="translate(75 0)"/>
      </g>
     </g>
    </g>
    <g id="ytick_9">
     <g id="line2d_23">
      <g>
       <use xlink:href="#m58c0f7c68d" x="192.54704" y="35.644783" style="stroke: #000000; stroke-width: 0.8"/>
      </g>
     </g>
     <g id="text_22">
      <!-- 2.0 -->
      <g transform="translate(173.04704 39.116658) scale(0.1 -0.1)">
       <use xlink:href="#TimesNewRomanPSMT-32"/>
       <use xlink:href="#TimesNewRomanPSMT-2e" transform="translate(50 0)"/>
       <use xlink:href="#TimesNewRomanPSMT-30" transform="translate(75 0)"/>
      </g>
     </g>
    </g>
    <g id="ytick_10">
     <g id="line2d_24">
      <g>
       <use xlink:href="#m58c0f7c68d" x="192.54704" y="13.881754" style="stroke: #000000; stroke-width: 0.8"/>
      </g>
     </g>
     <g id="text_23">
      <!-- 2.2 -->
      <g transform="translate(173.04704 17.353629) scale(0.1 -0.1)">
       <use xlink:href="#TimesNewRomanPSMT-32"/>
       <use xlink:href="#TimesNewRomanPSMT-2e" transform="translate(50 0)"/>
       <use xlink:href="#TimesNewRomanPSMT-32" transform="translate(75 0)"/>
      </g>
     </g>
    </g>
    <g id="text_24">
     <!-- 3D Fractal Dimension $n_f^{(3D)}$ -->
     <g transform="translate(166.24704 114.157813) rotate(-90) scale(0.1 -0.1)">
      <use xlink:href="#TimesNewRomanPSMT-33" transform="translate(0 0.310938)"/>
      <use xlink:href="#TimesNewRomanPSMT-44" transform="translate(50 0.310938)"/>
      <use xlink:href="#TimesNewRomanPSMT-20" transform="translate(122.216797 0.310938)"/>
      <use xlink:href="#TimesNewRomanPSMT-46" transform="translate(147.216797 0.310938)"/>
      <use xlink:href="#TimesNewRomanPSMT-72" transform="translate(202.832031 0.310938)"/>
      <use xlink:href="#TimesNewRomanPSMT-61" transform="translate(236.132812 0.310938)"/>
      <use xlink:href="#TimesNewRomanPSMT-63" transform="translate(280.517578 0.310938)"/>
      <use xlink:href="#TimesNewRomanPSMT-74" transform="translate(324.902344 0.310938)"/>
      <use xlink:href="#TimesNewRomanPSMT-61" transform="translate(352.685547 0.310938)"/>
      <use xlink:href="#TimesNewRomanPSMT-6c" transform="translate(397.070312 0.310938)"/>
      <use xlink:href="#TimesNewRomanPSMT-20" transform="translate(424.853516 0.310938)"/>
      <use xlink:href="#TimesNewRomanPSMT-44" transform="translate(449.853516 0.310938)"/>
      <use xlink:href="#TimesNewRomanPSMT-69" transform="translate(522.070312 0.310938)"/>
      <use xlink:href="#TimesNewRomanPSMT-6d" transform="translate(549.853516 0.310938)"/>
      <use xlink:href="#TimesNewRomanPSMT-65" transform="translate(627.636719 0.310938)"/>
      <use xlink:href="#TimesNewRomanPSMT-6e" transform="translate(672.021484 0.310938)"/>
      <use xlink:href="#TimesNewRomanPSMT-73" transform="translate(722.021484 0.310938)"/>
      <use xlink:href="#TimesNewRomanPSMT-69" transform="translate(760.9375 0.310938)"/>
      <use xlink:href="#TimesNewRomanPSMT-6f" transform="translate(788.720703 0.310938)"/>
      <use xlink:href="#TimesNewRomanPSMT-6e" transform="translate(838.720703 0.310938)"/>
      <use xlink:href="#TimesNewRomanPSMT-20" transform="translate(888.720703 0.310938)"/>
      <use xlink:href="#DejaVuSans-Oblique-6e" transform="translate(913.720703 0.310938)"/>
      <use xlink:href="#DejaVuSans-28" transform="translate(981.749505 47.8875) scale(0.7)"/>
      <use xlink:href="#DejaVuSans-33" transform="translate(1009.059076 47.8875) scale(0.7)"/>
      <use xlink:href="#DejaVuSans-Oblique-44" transform="translate(1050.445208 47.8875) scale(0.7)"/>
      <use xlink:href="#DejaVuSans-29" transform="translate(1104.346576 47.8875) scale(0.7)"/>
      <use xlink:href="#DejaVuSans-Oblique-66" transform="translate(977.099609 -27.032812) scale(0.7)"/>
     </g>
    </g>
   </g>
   <g id="patch_8">
    <path d="M 192.54704 111.815385 
L 192.54704 3.00024 
" style="fill: none; stroke: #000000; stroke-width: 0.8; stroke-linejoin: miter; stroke-linecap: square"/>
   </g>
   <g id="patch_9">
    <path d="M 299.39976 111.815385 
L 299.39976 3.00024 
" style="fill: none; stroke: #000000; stroke-width: 0.8; stroke-linejoin: miter; stroke-linecap: square"/>
   </g>
   <g id="patch_10">
    <path d="M 192.54704 111.815385 
L 299.39976 111.815385 
" style="fill: none; stroke: #000000; stroke-width: 0.8; stroke-linejoin: miter; stroke-linecap: square"/>
   </g>
   <g id="patch_11">
    <path d="M 192.54704 3.00024 
L 299.39976 3.00024 
" style="fill: none; stroke: #000000; stroke-width: 0.8; stroke-linejoin: miter; stroke-linecap: square"/>
   </g>
   <g id="text_25">
    <!-- $n_f^{3D}$ = -0.11$\,$OM + 1.92 -->
    <g style="fill: #7bc8a4" transform="translate(195.752621 97.077568) scale(0.06 -0.06)">
     <defs>
      <path id="TimesNewRomanPSMT-2d" d="M 259 1672 
L 1875 1672 
L 1875 1200 
L 259 1200 
L 259 1672 
z
" transform="scale(0.015625)"/>
     </defs>
     <use xlink:href="#DejaVuSans-Oblique-6e" transform="translate(0 0.70625)"/>
     <use xlink:href="#DejaVuSans-33" transform="translate(68.028802 40.046875) scale(0.7)"/>
     <use xlink:href="#DejaVuSans-Oblique-44" transform="translate(109.414935 40.046875) scale(0.7)"/>
     <use xlink:href="#DejaVuSans-Oblique-66" transform="translate(63.378906 -26.6375) scale(0.7)"/>
     <use xlink:href="#TimesNewRomanPSMT-20" transform="translate(166.050677 0.70625)"/>
     <use xlink:href="#TimesNewRomanPSMT-3d" transform="translate(191.050677 0.70625)"/>
     <use xlink:href="#TimesNewRomanPSMT-20" transform="translate(247.447161 0.70625)"/>
     <use xlink:href="#TimesNewRomanPSMT-2d" transform="translate(272.447161 0.70625)"/>
     <use xlink:href="#TimesNewRomanPSMT-30" transform="translate(305.747943 0.70625)"/>
     <use xlink:href="#TimesNewRomanPSMT-2e" transform="translate(355.747943 0.70625)"/>
     <use xlink:href="#TimesNewRomanPSMT-31" transform="translate(380.747943 0.70625)"/>
     <use xlink:href="#TimesNewRomanPSMT-31" transform="translate(430.747943 0.70625)"/>
     <use xlink:href="#TimesNewRomanPSMT-4f" transform="translate(496.983619 0.70625)"/>
     <use xlink:href="#TimesNewRomanPSMT-4d" transform="translate(569.200416 0.70625)"/>
     <use xlink:href="#TimesNewRomanPSMT-20" transform="translate(658.116431 0.70625)"/>
     <use xlink:href="#TimesNewRomanPSMT-2b" transform="translate(683.116431 0.70625)"/>
     <use xlink:href="#TimesNewRomanPSMT-20" transform="translate(739.512916 0.70625)"/>
     <use xlink:href="#TimesNewRomanPSMT-31" transform="translate(764.512916 0.70625)"/>
     <use xlink:href="#TimesNewRomanPSMT-2e" transform="translate(814.512916 0.70625)"/>
     <use xlink:href="#TimesNewRomanPSMT-39" transform="translate(839.512916 0.70625)"/>
     <use xlink:href="#TimesNewRomanPSMT-32" transform="translate(889.512916 0.70625)"/>
    </g>
   </g>
   <g id="text_26">
    <!-- $n_f^{3D}$ = -0.03$\,$OM + 1.81 -->
    <g style="fill: #2e4057" transform="translate(195.752621 105.782779) scale(0.06 -0.06)">
     <use xlink:href="#DejaVuSans-Oblique-6e" transform="translate(0 0.70625)"/>
     <use xlink:href="#DejaVuSans-33" transform="translate(68.028802 40.046875) scale(0.7)"/>
     <use xlink:href="#DejaVuSans-Oblique-44" transform="translate(109.414935 40.046875) scale(0.7)"/>
     <use xlink:href="#DejaVuSans-Oblique-66" transform="translate(63.378906 -26.6375) scale(0.7)"/>
     <use xlink:href="#TimesNewRomanPSMT-20" transform="translate(166.050677 0.70625)"/>
     <use xlink:href="#TimesNewRomanPSMT-3d" transform="translate(191.050677 0.70625)"/>
     <use xlink:href="#TimesNewRomanPSMT-20" transform="translate(247.447161 0.70625)"/>
     <use xlink:href="#TimesNewRomanPSMT-2d" transform="translate(272.447161 0.70625)"/>
     <use xlink:href="#TimesNewRomanPSMT-30" transform="translate(305.747943 0.70625)"/>
     <use xlink:href="#TimesNewRomanPSMT-2e" transform="translate(355.747943 0.70625)"/>
     <use xlink:href="#TimesNewRomanPSMT-30" transform="translate(380.747943 0.70625)"/>
     <use xlink:href="#TimesNewRomanPSMT-33" transform="translate(430.747943 0.70625)"/>
     <use xlink:href="#TimesNewRomanPSMT-4f" transform="translate(496.983619 0.70625)"/>
     <use xlink:href="#TimesNewRomanPSMT-4d" transform="translate(569.200416 0.70625)"/>
     <use xlink:href="#TimesNewRomanPSMT-20" transform="translate(658.116431 0.70625)"/>
     <use xlink:href="#TimesNewRomanPSMT-2b" transform="translate(683.116431 0.70625)"/>
     <use xlink:href="#TimesNewRomanPSMT-20" transform="translate(739.512916 0.70625)"/>
     <use xlink:href="#TimesNewRomanPSMT-31" transform="translate(764.512916 0.70625)"/>
     <use xlink:href="#TimesNewRomanPSMT-2e" transform="translate(814.512916 0.70625)"/>
     <use xlink:href="#TimesNewRomanPSMT-38" transform="translate(839.512916 0.70625)"/>
     <use xlink:href="#TimesNewRomanPSMT-31" transform="translate(889.512916 0.70625)"/>
    </g>
   </g>
   <g id="legend_2">
    <g id="line2d_25">
     <path d="M 197.94704 10.50024 
L 203.94704 10.50024 
L 209.94704 10.50024 
" style="fill: none; stroke: #7bc8a4; stroke-width: 1.8; stroke-linecap: square"/>
     <g>
      <use xlink:href="#m124a70261d" x="203.94704" y="10.50024" style="fill: #7bc8a4; stroke: #000000; stroke-opacity: 0"/>
     </g>
    </g>
    <g id="text_27">
     <!-- Stratified -->
     <g transform="translate(214.74704 12.60024) scale(0.06 -0.06)">
      <use xlink:href="#TimesNewRomanPSMT-53"/>
      <use xlink:href="#TimesNewRomanPSMT-74" transform="translate(55.615234 0)"/>
      <use xlink:href="#TimesNewRomanPSMT-72" transform="translate(83.398438 0)"/>
      <use xlink:href="#TimesNewRomanPSMT-61" transform="translate(116.699219 0)"/>
      <use xlink:href="#TimesNewRomanPSMT-74" transform="translate(161.083984 0)"/>
      <use xlink:href="#TimesNewRomanPSMT-69" transform="translate(188.867188 0)"/>
      <use xlink:href="#TimesNewRomanPSMT-66" transform="translate(216.650391 0)"/>
      <use xlink:href="#TimesNewRomanPSMT-69" transform="translate(249.951172 0)"/>
      <use xlink:href="#TimesNewRomanPSMT-65" transform="translate(277.734375 0)"/>
      <use xlink:href="#TimesNewRomanPSMT-64" transform="translate(322.119141 0)"/>
     </g>
    </g>
    <g id="line2d_26">
     <path d="M 197.94704 18.983678 
L 203.94704 18.983678 
L 209.94704 18.983678 
" style="fill: none; stroke: #2e4057; stroke-width: 1.8; stroke-linecap: square"/>
     <g>
      <use xlink:href="#mc7903a8c65" x="203.94704" y="18.983678" style="fill: #2e4057; stroke: #000000; stroke-opacity: 0"/>
     </g>
    </g>
    <g id="text_28">
     <!-- Aggregated -->
     <g transform="translate(214.74704 21.083678) scale(0.06 -0.06)">
      <use xlink:href="#TimesNewRomanPSMT-41"/>
      <use xlink:href="#TimesNewRomanPSMT-67" transform="translate(72.216797 0)"/>
      <use xlink:href="#TimesNewRomanPSMT-67" transform="translate(122.216797 0)"/>
      <use xlink:href="#TimesNewRomanPSMT-72" transform="translate(172.216797 0)"/>
      <use xlink:href="#TimesNewRomanPSMT-65" transform="translate(205.517578 0)"/>
      <use xlink:href="#TimesNewRomanPSMT-67" transform="translate(249.902344 0)"/>
      <use xlink:href="#TimesNewRomanPSMT-61" transform="translate(299.902344 0)"/>
      <use xlink:href="#TimesNewRomanPSMT-74" transform="translate(344.287109 0)"/>
      <use xlink:href="#TimesNewRomanPSMT-65" transform="translate(372.070312 0)"/>
      <use xlink:href="#TimesNewRomanPSMT-64" transform="translate(416.455078 0)"/>
     </g>
    </g>
   </g>
   <g id="LineCollection_3">
    <path d="M 197.403982 61.216343 
L 197.403982 45.546962 
" clip-path="url(#p75df788d03)" style="fill: none; stroke: #7bc8a4; stroke-width: 1.2"/>
    <path d="M 245.9734 84.393968 
L 245.9734 61.869233 
" clip-path="url(#p75df788d03)" style="fill: none; stroke: #7bc8a4; stroke-width: 1.2"/>
    <path d="M 294.542818 86.461456 
L 294.542818 64.480797 
" clip-path="url(#p75df788d03)" style="fill: none; stroke: #7bc8a4; stroke-width: 1.2"/>
   </g>
   <g id="line2d_27">
    <g clip-path="url(#p75df788d03)">
     <use xlink:href="#m1cd0dd4b17" x="197.403982" y="61.216343" style="fill: #1f77b4; stroke: #7bc8a4; stroke-width: 1.2"/>
     <use xlink:href="#m1cd0dd4b17" x="245.9734" y="84.393968" style="fill: #1f77b4; stroke: #7bc8a4; stroke-width: 1.2"/>
     <use xlink:href="#m1cd0dd4b17" x="294.542818" y="86.461456" style="fill: #1f77b4; stroke: #7bc8a4; stroke-width: 1.2"/>
    </g>
   </g>
   <g id="line2d_28">
    <g clip-path="url(#p75df788d03)">
     <use xlink:href="#m1cd0dd4b17" x="197.403982" y="45.546962" style="fill: #1f77b4; stroke: #7bc8a4; stroke-width: 1.2"/>
     <use xlink:href="#m1cd0dd4b17" x="245.9734" y="61.869233" style="fill: #1f77b4; stroke: #7bc8a4; stroke-width: 1.2"/>
     <use xlink:href="#m1cd0dd4b17" x="294.542818" y="64.480797" style="fill: #1f77b4; stroke: #7bc8a4; stroke-width: 1.2"/>
    </g>
   </g>
   <g id="LineCollection_4">
    <path d="M 197.403982 83.523447 
L 197.403982 31.400993 
" clip-path="url(#p75df788d03)" style="fill: none; stroke: #2e4057; stroke-width: 1.2"/>
    <path d="M 245.9734 83.741078 
L 245.9734 44.676441 
" clip-path="url(#p75df788d03)" style="fill: none; stroke: #2e4057; stroke-width: 1.2"/>
    <path d="M 294.542818 77.320984 
L 294.542818 49.137861 
" clip-path="url(#p75df788d03)" style="fill: none; stroke: #2e4057; stroke-width: 1.2"/>
   </g>
   <g id="line2d_29">
    <g clip-path="url(#p75df788d03)">
     <use xlink:href="#m5ffda572f9" x="197.403982" y="83.523447" style="fill: #1f77b4; stroke: #2e4057; stroke-width: 1.2"/>
     <use xlink:href="#m5ffda572f9" x="245.9734" y="83.741078" style="fill: #1f77b4; stroke: #2e4057; stroke-width: 1.2"/>
     <use xlink:href="#m5ffda572f9" x="294.542818" y="77.320984" style="fill: #1f77b4; stroke: #2e4057; stroke-width: 1.2"/>
    </g>
   </g>
   <g id="line2d_30">
    <g clip-path="url(#p75df788d03)">
     <use xlink:href="#m5ffda572f9" x="197.403982" y="31.400993" style="fill: #1f77b4; stroke: #2e4057; stroke-width: 1.2"/>
     <use xlink:href="#m5ffda572f9" x="245.9734" y="44.676441" style="fill: #1f77b4; stroke: #2e4057; stroke-width: 1.2"/>
     <use xlink:href="#m5ffda572f9" x="294.542818" y="49.137861" style="fill: #1f77b4; stroke: #2e4057; stroke-width: 1.2"/>
    </g>
   </g>
   <g id="line2d_31">
    <path d="M 197.403982 53.055207 
L 245.9734 72.859563 
L 294.542818 76.232833 
" clip-path="url(#p75df788d03)" style="fill: none; stroke: #7bc8a4; stroke-width: 1.8; stroke-linecap: square"/>
    <g clip-path="url(#p75df788d03)">
     <use xlink:href="#m124a70261d" x="197.403982" y="53.055207" style="fill: #7bc8a4; stroke: #000000; stroke-opacity: 0"/>
     <use xlink:href="#m124a70261d" x="245.9734" y="72.859563" style="fill: #7bc8a4; stroke: #000000; stroke-opacity: 0"/>
     <use xlink:href="#m124a70261d" x="294.542818" y="76.232833" style="fill: #7bc8a4; stroke: #000000; stroke-opacity: 0"/>
    </g>
   </g>
   <g id="line2d_32">
    <path d="M 197.403982 57.734258 
L 245.9734 64.154351 
L 294.542818 63.28383 
" clip-path="url(#p75df788d03)" style="fill: none; stroke: #2e4057; stroke-width: 1.8; stroke-linecap: square"/>
    <g clip-path="url(#p75df788d03)">
     <use xlink:href="#mc7903a8c65" x="197.403982" y="57.734258" style="fill: #2e4057; stroke: #000000; stroke-opacity: 0"/>
     <use xlink:href="#mc7903a8c65" x="245.9734" y="64.154351" style="fill: #2e4057; stroke: #000000; stroke-opacity: 0"/>
     <use xlink:href="#mc7903a8c65" x="294.542818" y="63.28383" style="fill: #2e4057; stroke: #000000; stroke-opacity: 0"/>
    </g>
   </g>
  </g>
 </g>
 <defs>
  <clipPath id="p846e1bdace">
   <rect x="39.40024" y="3.00024" width="106.85272" height="108.815145"/>
  </clipPath>
  <clipPath id="p75df788d03">
   <rect x="192.54704" y="3.00024" width="106.85272" height="108.815145"/>
  </clipPath>
 </defs>
</svg>
